<?xml version="1.0" standalone="no"?>
<!DOCTYPE svg PUBLIC "-//W3C//DTD SVG 20010904//EN"
 "http://www.w3.org/TR/2001/REC-SVG-20010904/DTD/svg10.dtd">
<svg version="1.0" xmlns="http://www.w3.org/2000/svg"
 width="600.000000pt" height="600.000000pt" viewBox="0 0 600.000000 600.000000"
 preserveAspectRatio="xMidYMid meet">
<metadata>
Created by potrace 1.14, written by Peter Selinger 2001-2017
</metadata>
<g transform="translate(0.000000,600.000000) scale(0.100000,-0.100000)"
fill="#000000" stroke="none">
<path d="M3834 4513 c4 -7 -5 -11 -26 -11 -52 0 -60 -1 -53 -12 3 -6 -1 -7 -9
-4 -9 3 -13 11 -9 17 3 6 1 7 -5 3 -7 -4 -12 -14 -12 -22 0 -8 -5 -12 -10 -9
-6 4 -7 11 -4 17 5 7 2 8 -5 4 -7 -5 -10 -14 -7 -22 3 -8 0 -11 -9 -7 -8 3
-12 10 -9 17 3 6 -6 -2 -21 -19 -14 -16 -23 -23 -19 -15 12 23 14 41 2 34 -5
-3 -7 -8 -4 -11 3 -3 -2 -12 -10 -20 -12 -12 -12 -18 -2 -32 12 -15 11 -15 -7
-1 -11 8 -24 20 -28 25 -5 6 -5 -1 -1 -15 6 -22 5 -23 -9 -12 -13 11 -15 10
-10 -10 5 -23 5 -23 -10 -3 -17 21 -19 2 -3 -23 7 -12 4 -12 -15 -1 -23 12
-23 11 -9 -6 14 -17 13 -17 -5 -7 -17 9 -21 7 -22 -8 -1 -13 3 -17 15 -13 13
4 14 3 3 -5 -7 -5 -18 -16 -23 -23 -8 -11 -9 -10 -4 3 3 10 1 20 -5 23 -5 4
-9 3 -8 -2 4 -20 -2 -34 -13 -32 -25 3 -39 -1 -33 -10 3 -5 1 -12 -4 -15 -5
-4 -13 -1 -17 5 -5 8 -3 9 6 4 8 -5 11 -4 6 3 -4 6 -13 9 -21 6 -8 -4 -13 -10
-10 -14 3 -5 0 -12 -6 -16 -7 -4 -9 -3 -6 2 3 6 -4 16 -16 24 -21 12 -21 12
-7 -5 14 -17 13 -18 -2 -12 -13 4 -15 2 -11 -10 5 -13 3 -14 -18 -3 -21 12
-23 12 -11 -2 10 -13 10 -18 1 -24 -8 -4 -9 -3 -5 4 11 19 -30 9 -54 -13 -11
-10 -20 -24 -20 -32 0 -7 -3 -12 -7 -12 -20 3 -24 -2 -14 -15 9 -11 8 -14 -5
-12 -9 0 -19 -5 -22 -13 -3 -9 0 -11 8 -6 9 5 11 4 6 -4 -6 -9 -12 -9 -24 1
-10 7 -14 8 -10 4 4 -5 2 -16 -5 -24 -9 -13 -9 -14 1 -8 6 4 12 2 12 -3 0 -6
-7 -11 -16 -11 -8 0 -12 -4 -9 -10 3 -6 -1 -7 -10 -3 -13 5 -14 7 -3 14 9 6 6
9 -12 9 -20 0 -22 2 -10 10 12 8 10 10 -10 10 -20 0 -22 2 -10 10 13 8 12 10
-3 10 -10 0 -16 4 -12 9 5 10 -28 25 -54 26 -8 0 -16 7 -18 15 -4 13 -3 13 6
0 8 -11 11 -12 11 -2 0 7 5 10 12 6 6 -4 8 -3 4 4 -3 6 -18 9 -31 6 -14 -2
-25 0 -25 6 0 6 -6 8 -12 4 -8 -5 -8 -2 1 10 12 15 12 17 0 14 -8 -2 -17 -10
-21 -18 -5 -12 -7 -12 -7 3 -1 9 -6 17 -12 17 -5 0 -8 4 -5 9 4 5 -7 7 -24 5
-31 -5 -74 11 -66 25 3 4 -1 8 -9 8 -11 0 -12 -5 -4 -21 l10 -21 -18 21 c-10
11 -25 18 -32 16 -10 -3 -12 0 -8 11 4 11 2 14 -8 10 -8 -3 -12 -9 -9 -14 3
-5 -2 -6 -10 -3 -9 3 -14 10 -13 16 1 5 -17 11 -40 13 -24 1 -43 -1 -43 -6 0
-5 -5 -9 -11 -9 -5 0 -7 5 -4 10 3 6 1 10 -4 10 -6 0 -11 -5 -11 -11 0 -6 -7
-3 -16 5 -20 21 -30 21 -14 1 12 -14 10 -15 -13 -11 -15 2 -31 7 -36 10 -5 3
-7 -4 -4 -16 4 -20 3 -21 -7 -6 -10 16 -13 17 -34 2 -19 -12 -25 -12 -29 -2
-3 7 -6 3 -6 -9 -1 -16 -6 -21 -16 -17 -8 4 -12 11 -8 18 3 6 -8 -4 -26 -23
-17 -19 -31 -31 -31 -27 0 5 -6 3 -13 -3 -8 -6 -17 -8 -21 -4 -4 4 -4 -1 0
-11 5 -13 4 -17 -4 -12 -8 5 -10 2 -6 -8 3 -9 11 -13 17 -9 5 3 7 1 4 -5 -4
-5 -16 -8 -27 -5 -11 3 -17 10 -13 16 4 6 1 7 -6 2 -9 -5 -10 -10 -2 -18 7 -7
1 -17 -21 -34 -18 -13 -26 -23 -19 -23 11 0 11 -3 1 -15 -7 -8 -16 -12 -21 -9
-5 3 -9 0 -9 -5 0 -14 13 -14 28 1 9 9 12 9 12 0 0 -7 -5 -12 -11 -12 -5 0 -7
-5 -3 -12 4 -6 3 -8 -3 -5 -6 4 -19 -3 -29 -16 -10 -12 -12 -16 -4 -9 22 19
35 14 16 -7 -10 -11 -14 -25 -9 -37 6 -17 5 -18 -13 -4 -13 10 -15 10 -7 0 7
-8 9 -19 4 -29 -5 -9 -9 -20 -9 -26 0 -5 -6 -11 -13 -14 -7 -2 -9 1 -4 10 6
11 5 12 -6 2 -7 -7 -18 -13 -23 -13 -6 0 -4 5 4 10 12 8 9 10 -13 10 -16 0
-26 4 -23 8 2 4 -4 14 -16 21 -11 7 -17 8 -13 2 3 -6 -1 -11 -10 -11 -9 0 -14
4 -11 9 3 5 -1 11 -9 15 -8 3 -17 1 -20 -4 -3 -5 -12 -7 -20 -4 -8 4 -12 10
-9 15 3 5 0 9 -5 9 -6 0 -11 -4 -11 -9 0 -6 -10 -8 -22 -6 -23 4 -23 4 -3 -11
20 -16 20 -16 -2 -10 -18 6 -21 3 -19 -18 2 -19 -1 -24 -16 -21 -15 3 -16 1
-8 -16 9 -15 7 -19 -7 -19 -11 0 -14 -3 -7 -8 17 -11 12 -44 -8 -50 -10 -2
-15 -8 -13 -13 3 -4 13 -6 23 -3 15 5 15 5 -1 -6 -9 -6 -23 -8 -30 -4 -6 4 -3
-3 8 -16 11 -13 14 -20 8 -16 -8 4 -13 1 -13 -8 0 -9 -6 -16 -12 -16 -9 0 -8
-4 2 -10 8 -5 10 -10 4 -10 -6 0 -10 -11 -9 -25 2 -14 -1 -23 -6 -19 -5 3 -7
10 -4 15 10 15 -2 10 -16 -8 -8 -9 -9 -14 -3 -10 7 4 14 0 18 -8 3 -8 2 -15
-2 -15 -4 0 -13 -12 -19 -27 -10 -21 -10 -28 -1 -35 10 -5 10 -10 -1 -20 -11
-11 -13 -11 -6 1 6 10 4 12 -4 7 -9 -6 -9 -11 0 -22 10 -12 10 -15 -2 -12 -8
2 -18 8 -22 13 -5 6 -5 -1 -2 -14 6 -20 4 -23 -9 -18 -10 4 -15 3 -12 -1 3 -5
-1 -9 -9 -9 -8 0 -12 4 -9 9 3 4 -5 8 -18 8 -27 1 -61 24 -50 35 4 4 -3 3 -15
-3 -19 -11 -21 -9 -16 11 4 18 3 19 -6 7 -9 -13 -11 -12 -11 3 0 14 -5 17 -22
12 -13 -4 -18 -3 -11 2 8 6 6 14 -7 31 -21 26 -40 30 -19 4 8 -10 4 -8 -7 4
-12 13 -25 20 -30 16 -4 -4 -5 0 -1 10 8 22 -3 30 -21 15 -13 -9 -14 -9 -8 1
4 7 2 12 -4 12 -6 0 -8 5 -5 10 3 6 -3 10 -15 10 -12 0 -18 5 -15 10 3 6 0 10
-8 10 -8 0 -21 8 -28 18 -12 15 -12 16 1 7 10 -6 9 -4 -2 6 -9 9 -14 20 -10
24 4 4 -4 2 -18 -5 -23 -12 -24 -12 -11 4 12 14 12 16 -4 10 -14 -6 -16 -4
-10 6 5 9 4 11 -3 6 -6 -4 -19 2 -29 13 -9 11 -20 18 -24 16 -4 -3 -13 3 -20
12 -10 12 -10 14 -1 9 6 -4 12 -2 12 3 0 6 -7 11 -16 11 -9 0 -12 5 -8 13 5 7
0 6 -11 -3 -17 -14 -18 -13 -12 4 6 14 4 17 -8 12 -18 -7 -20 10 -2 18 6 3 3
4 -9 1 -13 -4 -26 1 -35 12 -12 16 -12 17 1 8 10 -6 9 -4 -2 6 -9 9 -15 19
-12 21 2 3 -7 4 -21 2 -23 -2 -25 0 -13 14 7 9 9 14 4 10 -5 -4 -16 1 -25 10
-9 10 -12 12 -7 5 6 -10 4 -12 -8 -7 -9 3 -16 11 -16 18 0 6 -10 12 -21 13
-21 2 -21 1 -3 -12 18 -14 18 -14 -4 -10 -12 2 -22 -1 -22 -6 0 -6 -4 -7 -10
-4 -5 3 -7 0 -4 -8 3 -8 0 -18 -5 -22 -6 -3 -8 -11 -5 -17 4 -6 -3 -5 -16 2
-15 8 -20 8 -16 1 12 -19 16 -52 5 -46 -5 4 -6 11 -3 17 4 7 2 8 -4 4 -7 -4
-12 -14 -12 -22 0 -8 -6 -17 -14 -20 -8 -3 -12 -12 -9 -20 6 -17 -13 -19 -21
-1 -3 6 -3 1 0 -12 5 -17 3 -21 -6 -16 -9 5 -11 4 -6 -3 4 -7 2 -20 -4 -29
-10 -16 -11 -16 -5 2 4 14 3 17 -4 10 -6 -6 -12 -22 -14 -35 -3 -14 -11 -25
-19 -24 -8 1 -15 -5 -15 -12 0 -8 4 -14 9 -14 4 0 7 -3 7 -7 -4 -26 2 -43 14
-37 7 5 6 0 -3 -11 -9 -11 -10 -16 -2 -11 6 4 12 2 12 -3 0 -12 26 -15 33 -3
2 4 2 1 0 -6 -4 -19 24 -46 31 -29 4 6 4 2 2 -9 -3 -18 1 -21 19 -20 18 2 21
-1 18 -18 -4 -17 -3 -18 6 -6 8 11 11 12 11 2 0 -7 5 -10 10 -7 6 3 10 2 10
-4 0 -5 -6 -12 -12 -15 -7 -3 -4 -4 7 -1 11 2 27 0 35 -6 13 -9 12 -10 -3 -5
-11 4 -16 2 -11 -5 3 -6 15 -8 26 -6 16 5 17 3 6 -11 -8 -9 -8 -13 -1 -9 6 4
13 3 15 -2 1 -5 10 -11 18 -13 8 -2 27 -15 41 -30 15 -15 29 -24 33 -21 3 3 6
-1 6 -10 0 -9 7 -17 16 -17 9 0 12 -5 8 -12 -5 -8 0 -7 11 2 11 9 16 10 11 3
-4 -7 -3 -13 3 -13 5 0 13 -9 16 -20 3 -11 13 -20 22 -20 13 0 14 -2 2 -17
-12 -15 -12 -16 3 -10 14 5 16 2 8 -17 -5 -13 -6 -26 -4 -29 3 -3 -3 -10 -14
-16 -20 -11 -21 -23 -8 -79 3 -14 1 -20 -5 -16 -6 3 -19 -2 -29 -11 -10 -9
-24 -14 -31 -9 -8 4 -10 3 -5 -4 4 -7 3 -12 -3 -12 -5 0 -12 6 -14 13 -3 7 -6
5 -6 -5 -1 -10 -6 -18 -11 -18 -6 0 -9 3 -9 8 3 20 -2 33 -11 27 -6 -4 -8 -10
-6 -14 3 -4 -1 -8 -10 -8 -10 0 -12 7 -8 21 5 19 4 19 -11 -2 l-17 -23 -23 21
c-13 12 -29 19 -35 15 -6 -4 -22 1 -37 10 -15 10 -22 12 -18 4 6 -9 3 -11 -9
-6 -10 4 -15 3 -11 -3 3 -5 -4 -7 -16 -5 -13 3 -26 10 -30 16 -5 8 -8 7 -12
-2 -4 -10 -6 -10 -6 -1 -1 6 -8 12 -17 12 -8 0 -13 -4 -10 -8 2 -4 -7 -9 -22
-10 -34 -3 -51 -19 -29 -28 15 -5 14 -8 -6 -26 -12 -11 -15 -16 -7 -12 10 5 8
0 -4 -15 -16 -17 -17 -21 -4 -16 12 5 16 2 13 -12 -2 -10 -4 -22 -4 -27 -1 -5
-9 -2 -18 5 -10 7 -8 2 4 -12 23 -25 22 -69 -1 -69 -6 0 -4 -5 4 -10 13 -9 13
-10 0 -10 -13 0 -13 -1 0 -10 12 -8 12 -10 -5 -11 -11 0 -14 -3 -7 -6 10 -4
10 -8 0 -21 -11 -13 -10 -15 5 -9 9 3 17 2 17 -3 0 -6 -5 -10 -11 -10 -8 0 -8
-4 1 -15 10 -12 8 -13 -11 -10 -17 4 -20 2 -11 -7 15 -15 16 -31 0 -22 -7 4
-8 3 -4 -5 4 -6 12 -9 17 -6 5 4 9 1 9 -4 0 -6 -4 -11 -9 -11 -16 0 -19 -38
-5 -58 11 -17 9 -23 -17 -53 -17 -19 -28 -29 -25 -24 2 6 -4 16 -14 23 -16 10
-18 9 -14 -3 4 -10 0 -13 -15 -10 -11 2 -23 -1 -26 -6 -8 -13 -25 -2 -21 14 1
7 1 9 -1 4 -3 -4 -9 -5 -14 -2 -5 4 -6 0 -3 -8 3 -10 -2 -13 -18 -11 -13 1
-27 3 -31 3 -5 1 -5 7 -2 14 4 6 1 5 -7 -3 -18 -21 -49 -22 -65 -2 -12 15 -12
15 -6 -3 3 -11 3 -17 -2 -13 -4 4 -14 3 -22 -4 -7 -6 -16 -8 -20 -5 -3 4 -12
2 -19 -4 -8 -7 -14 -6 -20 2 -4 7 -3 9 4 5 6 -3 14 -2 17 4 11 18 -42 6 -67
-15 -16 -14 -19 -15 -10 -3 12 14 11 17 -5 15 -20 -1 -26 -46 -8 -60 5 -5 0
-6 -12 -2 -12 3 -25 1 -29 -6 -5 -8 -3 -9 6 -4 16 10 3 -36 -14 -47 -8 -6 -8
-8 1 -8 6 0 10 -9 8 -20 -2 -11 0 -18 4 -16 4 3 8 -2 8 -10 0 -8 -6 -13 -12
-10 -7 2 -18 0 -26 -6 -11 -8 -10 -9 3 -4 11 3 22 -2 28 -14 8 -16 8 -18 -5
-14 -20 8 -19 -6 2 -22 17 -13 17 -14 -1 -7 -13 4 -17 3 -12 -5 4 -7 1 -15 -8
-18 -20 -8 -21 -21 -1 -21 8 0 11 5 8 10 -4 6 -1 7 6 3 9 -6 9 -12 -3 -25 -12
-13 -14 -25 -7 -48 8 -27 7 -31 -7 -25 -14 5 -15 3 -5 -9 7 -9 8 -20 3 -28 -4
-8 -6 -21 -2 -29 3 -10 1 -13 -6 -8 -6 3 -14 1 -18 -5 -4 -7 -3 -9 3 -6 6 4
16 0 23 -9 10 -12 11 -17 1 -27 -10 -9 -11 -8 -6 5 4 10 3 18 -2 18 -17 0 -12
-40 5 -41 11 -1 8 -4 -8 -9 -14 -4 -20 -8 -14 -9 7 -1 15 -8 18 -17 5 -13 4
-14 -7 -6 -10 9 -14 8 -14 -3 0 -8 4 -15 9 -15 5 0 6 -5 3 -10 -4 -6 -11 -7
-17 -4 -7 4 -8 2 -4 -5 4 -6 13 -8 19 -4 7 4 5 -2 -3 -13 -8 -10 -10 -16 -6
-12 5 4 15 0 22 -10 9 -13 10 -21 1 -32 -6 -8 -7 -12 -2 -7 4 4 19 0 32 -9 27
-17 66 -27 59 -15 -3 4 1 8 8 8 8 0 12 -6 9 -14 -3 -7 2 -13 12 -13 9 0 14 -4
11 -8 -3 -5 2 -9 10 -9 8 0 13 6 10 13 -4 10 4 9 29 -3 19 -9 31 -21 28 -26
-4 -6 -1 -7 8 -1 19 11 60 13 53 2 -3 -4 -11 -5 -17 -2 -7 4 -9 3 -4 -1 4 -5
26 -10 50 -11 58 -2 57 -2 51 -21 -4 -11 -3 -14 3 -7 4 6 17 14 27 17 15 6 17
5 8 -6 -9 -11 -7 -13 8 -12 11 1 23 5 27 10 5 4 2 5 -6 0 -10 -6 -12 -4 -6 5
6 10 11 10 20 -3 7 -10 18 -17 24 -17 7 0 9 -5 5 -12 -5 -7 -3 -8 5 -4 7 5 10
15 6 23 -4 12 -3 13 8 5 8 -7 18 -8 22 -4 5 4 4 1 0 -7 -6 -11 -4 -13 8 -8 10
3 17 3 17 -1 0 -4 9 -8 19 -8 11 0 17 4 15 8 -3 4 -1 8 5 8 5 0 11 -5 13 -12
3 -8 12 -9 36 0 22 7 30 8 26 1 -4 -7 5 -9 24 -6 16 3 36 0 43 -5 10 -7 9 -8
-6 -3 -16 5 -18 4 -7 -6 9 -10 15 -10 24 -1 17 17 31 15 24 -4 -5 -14 -4 -15
9 -4 8 7 12 17 8 23 -3 6 -1 7 6 3 6 -4 8 -13 4 -19 -4 -7 2 -5 12 3 11 9 16
10 11 3 -4 -7 -3 -13 3 -13 5 0 12 6 14 13 4 10 6 10 6 0 1 -7 7 -13 15 -13 8
0 17 6 19 13 3 6 6 3 6 -7 1 -20 1 -20 17 0 8 10 13 13 9 7 -7 -16 7 -17 21
-3 7 7 11 6 11 -4 0 -8 -5 -12 -10 -9 -6 3 -7 1 -3 -5 9 -15 38 -3 29 12 -3 6
2 4 13 -5 19 -16 57 -22 48 -8 -2 5 -11 6 -19 2 -10 -3 -15 1 -15 13 0 16 2
17 10 4 5 -8 10 -11 10 -6 0 4 12 1 26 -9 25 -16 25 -16 13 7 -12 23 -12 23
10 4 16 -14 21 -16 21 -5 0 12 2 12 9 0 12 -19 44 -24 37 -6 -3 8 -1 17 5 20
5 4 8 1 7 -7 -2 -8 4 -12 16 -10 10 2 15 -1 12 -6 -3 -6 2 -9 11 -7 10 2 22 4
26 4 5 1 5 7 2 13 -4 7 3 2 14 -11 12 -13 21 -19 21 -13 0 5 17 8 38 6 26 -2
33 -1 22 6 -12 8 -10 10 8 10 14 0 21 -4 16 -11 -3 -6 6 -3 22 7 25 16 27 16
16 2 -12 -15 -11 -17 7 -15 11 0 18 4 15 8 -2 4 3 10 12 13 8 3 13 2 10 -3 -3
-5 2 -15 11 -22 14 -12 16 -12 8 0 -6 11 -4 13 7 8 9 -3 20 -1 26 5 7 7 20 7
41 0 22 -8 32 -8 37 0 5 7 2 8 -7 3 -8 -5 -11 -4 -6 0 11 13 46 13 41 0 -5
-12 53 -12 64 1 4 4 -2 4 -13 0 -16 -6 -17 -5 -8 5 9 9 15 9 26 0 12 -9 16 -8
21 5 4 11 10 13 19 7 14 -11 27 -11 45 0 7 5 12 4 12 -2 0 -6 -5 -11 -11 -11
-5 0 -7 -5 -4 -10 4 -6 14 -1 25 12 17 22 19 22 37 5 11 -9 24 -17 29 -17 5 0
3 4 -4 9 -11 7 -11 9 2 14 11 4 16 1 17 -11 0 -13 3 -11 9 6 12 28 20 29 15 1
-4 -21 -4 -21 17 -3 14 12 19 14 13 4 -4 -8 -5 -12 0 -8 4 4 15 2 23 -5 13
-10 14 -9 8 1 -6 9 -1 11 18 8 18 -3 26 0 26 10 0 8 4 14 10 14 5 0 7 -6 4
-13 -3 -8 2 -14 10 -14 8 0 13 4 10 9 -8 12 10 10 23 -3 8 -8 13 -7 18 2 5 8
4 10 -3 5 -7 -4 -12 -2 -12 3 0 13 17 14 24 2 7 -10 56 -2 75 13 11 8 13 8 7
-1 -9 -16 6 -17 22 -1 7 7 12 8 12 4 0 -5 6 -3 14 3 11 9 16 9 22 0 5 -8 3
-10 -7 -4 -8 5 -10 4 -6 0 10 -12 38 -15 31 -4 -3 5 13 9 36 9 23 0 39 4 36 8
-3 5 1 9 9 9 8 0 12 -3 10 -7 -2 -4 8 -12 23 -19 24 -10 25 -10 9 3 -17 13
-16 14 3 19 11 3 20 0 20 -6 0 -7 5 -5 10 3 6 10 10 11 10 2 0 -15 21 -11 38
8 8 8 11 10 8 3 -4 -6 -2 -14 4 -18 5 -3 10 1 10 9 0 10 6 13 17 9 9 -4 14 -2
10 3 -3 5 3 10 13 10 14 0 16 -3 8 -13 -6 -8 -8 -16 -4 -20 3 -3 6 -1 6 6 0 8
6 11 16 7 8 -3 13 -2 10 3 -3 5 2 15 11 22 9 8 14 9 11 4 -4 -6 -3 -17 3 -25
7 -12 9 -12 9 4 0 16 2 17 17 5 14 -12 16 -12 8 0 -6 11 -1 13 23 9 22 -3 29
-1 22 7 -6 7 -3 11 10 11 10 0 17 -3 14 -7 -2 -4 4 -9 14 -11 11 -3 19 0 19 8
0 7 -5 10 -10 7 -6 -3 -7 -1 -3 5 4 6 13 9 21 6 8 -4 12 -11 8 -18 -4 -6 0 -6
9 2 9 7 28 11 42 8 15 -3 24 -1 21 5 -4 5 -1 10 4 10 6 1 17 2 24 3 21 4 30
-6 16 -16 -11 -8 -11 -9 1 -5 8 2 15 9 15 15 0 5 3 14 8 18 4 4 7 3 7 -3 0 -6
7 -14 16 -17 8 -3 13 -2 10 3 -3 5 2 15 11 22 12 10 14 10 9 2 -4 -7 -5 -13
-2 -13 2 0 11 -3 20 -6 9 -3 16 -1 16 6 0 6 -5 8 -12 4 -7 -4 -8 -3 -4 5 6 9
11 9 21 1 10 -8 15 -8 21 1 4 8 3 9 -4 5 -17 -10 -15 -1 4 14 8 8 14 9 13 4
-3 -19 1 -34 12 -34 5 0 7 5 4 10 -3 6 3 10 15 10 12 0 19 4 16 8 -3 5 5 8 17
7 12 -1 29 3 37 9 13 10 13 9 1 -6 -7 -10 -17 -16 -21 -13 -5 3 -11 1 -14 -4
-4 -5 0 -8 6 -6 41 10 57 18 52 27 -4 6 4 5 16 -2 21 -11 22 -10 16 6 -6 17
-6 17 14 -1 20 -18 21 -18 14 0 -6 14 -4 16 7 9 21 -13 39 -14 39 -2 0 6 9 8
20 5 12 -3 18 -1 14 5 -4 6 2 8 16 3 17 -6 21 -4 14 6 -6 10 -3 10 11 -1 17
-14 18 -13 12 4 -7 17 -6 17 10 5 15 -12 16 -12 10 3 -4 12 -2 15 8 11 8 -3
12 -10 8 -16 -4 -6 -1 -7 6 -3 7 5 10 15 7 25 -5 12 -2 11 9 -3 8 -11 15 -14
15 -8 0 7 14 12 31 12 17 0 28 4 24 10 -3 5 -2 10 4 10 5 0 11 -6 14 -12 3
-10 8 -10 18 1 9 9 9 11 2 7 -19 -10 -16 -1 4 15 9 8 14 9 10 3 -4 -7 1 -14
11 -16 22 -6 44 1 37 13 -4 5 8 7 25 5 22 -3 30 0 26 9 -3 10 3 12 20 9 18 -3
23 -1 18 7 -4 7 -3 9 4 5 6 -3 13 -2 17 4 8 13 25 13 25 -1 0 -5 -5 -7 -12 -3
-7 5 -8 3 -3 -6 6 -10 10 -10 20 3 9 13 14 14 25 4 10 -10 12 -9 7 5 -4 13 -1
16 14 13 13 -3 19 0 16 8 -3 7 -10 11 -16 9 -7 -1 -9 2 -5 9 5 9 13 5 26 -10
16 -21 23 -20 19 2 -1 4 8 3 18 -3 14 -7 22 -7 27 2 5 7 3 8 -6 3 -9 -6 -11
-4 -6 4 5 7 14 10 22 7 9 -3 14 1 15 12 0 11 2 12 6 4 4 -10 8 -10 21 0 13 11
14 11 7 -1 -6 -10 -4 -12 4 -7 7 5 10 15 6 25 -5 13 -4 14 6 4 14 -14 33 -18
25 -5 -5 9 -3 10 52 13 32 2 59 29 44 43 -3 4 2 4 12 0 15 -6 17 -4 11 6 -6 9
-4 11 5 5 10 -6 9 -11 -5 -22 -11 -7 -15 -13 -11 -13 10 0 66 46 63 52 -1 2 2
0 8 -4 17 -15 28 -8 14 8 -12 15 -11 16 8 10 13 -4 24 -2 29 5 5 8 3 9 -6 4
-9 -6 -11 -4 -6 4 5 7 15 10 25 7 13 -5 13 -4 -2 8 -17 13 -16 14 3 19 11 3
18 1 14 -4 -3 -5 2 -6 11 -3 11 5 13 10 5 19 -12 15 14 29 33 18 7 -4 6 1 -2
10 -12 15 -11 17 5 18 11 1 23 1 27 0 5 -1 6 3 2 9 -3 6 -12 7 -18 3 -7 -4 -7
0 1 10 8 9 10 22 6 29 -5 10 -4 10 6 1 16 -15 56 19 44 38 -5 9 -2 11 9 6 11
-4 14 -2 11 7 -3 8 0 17 7 22 8 4 10 3 5 -4 -4 -7 -2 -12 4 -12 7 0 9 7 6 15
-3 9 1 18 9 21 8 4 13 10 10 14 -3 5 -1 11 3 14 5 3 8 17 6 32 -2 19 1 24 12
20 12 -5 12 -2 3 17 -11 20 -11 21 5 8 14 -12 16 -12 10 4 -6 14 -4 16 7 10
12 -8 12 -6 1 8 -12 14 -11 16 8 12 21 -4 22 -3 6 14 -13 14 -14 21 -5 27 8 4
10 3 5 -4 -4 -7 -2 -12 3 -12 6 0 11 10 11 23 0 18 2 19 11 7 9 -12 10 -11 6
7 -3 13 1 24 9 27 9 3 11 -1 8 -12 -5 -14 -4 -15 5 -2 6 8 8 24 5 35 -4 16 -3
17 5 5 9 -13 12 -12 17 7 4 14 11 20 22 16 10 -4 13 -2 8 5 -5 8 -1 10 10 5
13 -5 16 -3 11 10 -4 12 -1 15 16 11 11 -2 25 2 29 9 6 9 8 9 8 0 0 -7 4 -13
9 -13 5 0 6 10 3 23 -5 21 -5 21 12 5 10 -10 19 -18 20 -18 2 0 10 8 17 18 13
16 13 16 -6 2 -19 -14 -19 -14 -6 3 14 18 16 18 28 1 12 -17 13 -17 13 2 0 14
2 16 9 6 6 -11 10 -10 15 3 5 14 9 15 20 6 11 -9 16 -9 22 0 5 8 3 9 -6 4 -9
-5 -11 -4 -6 4 6 9 11 9 21 1 9 -8 14 -6 19 7 6 15 9 15 16 3 5 -8 7 -17 4
-21 -6 -11 25 -4 36 7 7 7 6 11 -4 11 -8 0 -12 -5 -9 -10 3 -6 1 -7 -6 -3 -14
9 -6 25 12 22 6 -1 22 -7 34 -14 17 -9 22 -9 27 3 3 8 11 15 18 14 10 0 10 -2
1 -6 -7 -2 -13 -12 -13 -21 0 -14 2 -14 9 -3 5 8 16 11 26 7 15 -5 16 -4 5 9
-11 13 -11 16 1 13 8 -2 17 -7 21 -13 4 -6 13 -2 22 10 15 19 15 19 9 -5 -5
-25 -5 -25 11 -5 10 11 14 14 11 7 -6 -11 -3 -12 13 -3 15 8 22 8 25 -2 4 -9
6 -8 6 2 1 10 4 11 15 2 12 -10 17 -8 25 7 7 14 19 18 50 16 27 -1 38 2 35 10
-2 6 5 12 16 13 11 1 20 -4 20 -10 1 -7 6 -3 13 9 7 13 21 20 35 19 12 -1 22
4 22 11 0 13 36 30 58 25 7 -1 12 2 11 6 -3 20 2 27 12 13 8 -11 9 -8 5 15 -4
17 -3 25 1 19 4 -6 16 -13 25 -17 15 -5 16 -2 7 20 -9 24 -8 25 8 12 15 -12
16 -12 10 3 -4 12 -2 15 9 11 10 -4 12 0 8 11 -6 15 10 22 38 17 4 0 5 6 2 13
-9 24 15 58 36 51 10 -3 22 0 26 6 5 8 3 9 -6 4 -10 -6 -12 -4 -7 7 3 9 0 21
-6 28 -7 7 0 5 16 -5 l28 -18 -10 27 c-8 19 -7 25 2 23 7 -1 11 6 11 16 -1 13
2 15 10 8 8 -7 12 -4 13 10 1 12 -3 17 -9 13 -7 -4 -8 -2 -4 5 4 6 11 9 15 6
9 -5 28 16 49 52 14 27 16 46 1 21 -5 -10 -15 -18 -22 -18 -8 0 -7 3 2 9 7 5
10 14 7 20 -5 7 -2 10 6 9 7 -2 14 7 16 20 2 12 7 22 12 22 5 0 7 9 5 19 -2
13 1 18 9 15 7 -3 12 5 13 18 2 17 0 19 -6 9 -7 -10 -9 -6 -8 12 2 19 5 23 15
15 7 -6 15 -8 19 -4 3 3 1 6 -5 6 -7 0 -12 5 -12 11 0 5 5 7 12 3 6 -4 8 -3 4
4 -3 6 -3 13 2 16 5 3 7 19 4 36 -2 17 2 37 9 47 8 9 9 14 3 10 -7 -4 -15 0
-18 9 -3 8 -2 12 3 9 5 -3 12 -1 16 5 3 5 -2 10 -12 10 -15 0 -16 2 -3 10 12
8 12 10 -5 11 l-20 0 20 9 c11 5 14 9 7 9 -9 1 -10 6 -3 18 7 13 5 23 -6 36
-12 13 -14 20 -5 29 8 8 5 16 -11 30 -12 11 -17 17 -10 14 6 -4 13 -3 16 1 2
5 2 1 0 -7 -3 -11 -1 -12 8 -3 15 15 3 33 -20 28 -17 -3 -18 0 -11 26 7 22 5
29 -6 29 -19 0 -56 60 -50 82 2 10 -1 16 -8 15 -6 -1 -10 3 -9 9 1 8 -6 10
-19 6 -14 -3 -19 -1 -14 6 4 7 -3 14 -18 18 -13 3 -27 13 -31 21 -4 13 -3 14
10 3 9 -7 18 -10 22 -6 3 3 1 6 -6 6 -7 0 -10 4 -7 9 4 5 -5 8 -19 6 -14 -1
-25 2 -25 7 0 5 -6 6 -12 2 -8 -5 -7 0 2 11 8 10 10 16 3 12 -6 -4 -13 -2 -15
5 -3 7 -18 12 -34 13 -22 0 -28 4 -26 17 2 12 -3 16 -18 13 -13 -3 -20 1 -20
12 0 13 -2 14 -17 2 -11 -10 -14 -10 -9 -1 4 7 1 12 -8 12 -28 0 -31 1 -50 18
-10 9 -20 15 -21 12 -2 -3 -7 -1 -12 4 -5 5 -2 6 6 1 9 -5 12 -4 7 3 -4 6 -14
8 -23 5 -12 -5 -14 -3 -8 8 6 11 5 11 -5 2 -10 -9 -16 -9 -27 2 -7 8 -21 11
-30 8 -12 -5 -14 -3 -9 8 4 8 1 6 -7 -3 -11 -14 -16 -15 -27 -5 -10 10 -12 8
-7 -6 5 -13 3 -16 -6 -10 -6 4 -18 8 -25 9 -11 2 -11 0 0 -14 10 -13 10 -14 0
-8 -7 4 -19 3 -26 -3 -8 -7 -18 -11 -22 -10 -20 3 -26 -2 -15 -14 8 -11 6 -13
-12 -13 -12 1 -21 -4 -20 -11 2 -8 -4 -10 -14 -6 -13 5 -15 2 -9 -12 4 -11 4
-16 0 -13 -3 4 -13 0 -21 -8 -9 -8 -22 -13 -29 -10 -17 7 -28 -10 -13 -20 8
-5 9 -3 4 6 -5 9 -4 11 4 6 21 -13 1 -27 -22 -15 -12 7 -19 8 -15 4 4 -5 2
-15 -5 -24 -11 -14 -10 -15 8 -1 18 14 19 14 7 -2 -8 -10 -20 -14 -29 -11 -12
5 -14 3 -8 -8 7 -11 5 -11 -10 1 -17 14 -17 13 -10 -10 7 -21 6 -23 -7 -12
-12 10 -18 8 -32 -6 -9 -10 -13 -22 -9 -27 5 -4 -4 -5 -20 -3 -15 3 -30 1 -34
-5 -3 -6 -1 -7 5 -3 7 4 12 2 12 -5 0 -6 -8 -9 -20 -6 -11 3 -23 0 -27 -5 -4
-7 -1 -8 8 -3 12 8 12 6 0 -8 -10 -13 -17 -15 -27 -6 -11 9 -14 8 -14 -6 0
-15 -2 -16 -17 -4 -15 12 -16 12 -10 -3 7 -20 -9 -25 -16 -5 -4 10 -6 10 -6 0
-1 -7 -6 -13 -12 -13 -5 0 -7 5 -3 12 5 7 3 8 -5 4 -7 -5 -10 -15 -6 -24 5
-13 1 -12 -15 3 -20 18 -20 18 -14 1 6 -15 3 -17 -15 -11 -16 5 -27 1 -37 -12
-9 -10 -13 -13 -10 -6 4 7 -1 11 -14 10 -13 -1 -19 -6 -15 -16 4 -11 3 -12
-10 -1 -12 10 -15 10 -15 -4 0 -10 -4 -15 -10 -11 -5 3 -7 13 -3 23 3 11 -1 9
-11 -6 -10 -13 -22 -19 -29 -15 -18 11 -38 12 -31 2 3 -5 10 -6 16 -3 7 4 8 2
4 -4 -5 -9 -13 -9 -27 -2 -14 8 -19 7 -19 -2 -1 -8 -7 -5 -17 7 -13 16 -15 17
-10 3 4 -10 2 -18 -4 -18 -6 0 -7 -5 -3 -12 4 -7 3 -8 -4 -4 -7 4 -12 15 -12
24 0 14 -1 14 -12 0 -18 -21 -49 -31 -42 -13 4 9 -1 12 -13 10 -10 -2 -22 -4
-26 -4 -5 -1 -6 -4 -4 -8 3 -5 -11 -9 -30 -9 -25 -1 -31 1 -22 8 10 6 6 7 -11
2 -14 -3 -31 -11 -37 -16 -8 -6 -13 -6 -13 -1 0 5 6 15 13 22 10 11 9 12 -3 5
-8 -5 -19 -9 -25 -10 -5 -1 -19 -6 -29 -10 -14 -5 -17 -4 -12 4 5 8 2 10 -9 6
-8 -4 -23 0 -32 7 -12 10 -15 10 -9 2 5 -9 0 -13 -14 -13 -12 0 -25 10 -31 23
l-10 22 5 -22 c5 -29 -8 -38 -27 -19 -8 8 -18 12 -22 8 -4 -4 -1 3 6 16 8 12
17 22 21 22 4 0 5 6 2 14 -3 8 3 19 15 26 22 11 28 30 10 30 -5 0 -7 -4 -4
-10 3 -5 1 -10 -4 -10 -17 0 -13 18 7 29 9 6 11 11 5 11 -7 0 -13 4 -13 10 0
5 8 6 18 3 14 -6 15 -4 4 9 -10 13 -10 18 -1 24 8 5 9 3 4 -6 -5 -9 -4 -11 4
-6 9 6 9 11 0 23 -7 8 -13 23 -14 34 -1 15 1 16 12 7 11 -8 12 -7 7 6 -3 9
-11 16 -18 17 -6 0 -2 4 9 9 11 5 15 9 8 9 -6 1 -10 12 -9 26 2 14 -1 22 -6
18 -6 -3 -8 4 -4 18 3 13 3 18 0 12 -3 -7 -10 -13 -15 -13 -6 0 -8 4 -5 9 3 5
-1 14 -9 21 -12 10 -12 17 -3 34 10 19 10 20 -6 7 -14 -12 -16 -12 -10 4 6 13
4 16 -5 10 -10 -6 -11 -2 -6 15 5 17 4 21 -6 15 -9 -6 -11 -3 -6 8 3 10 2 17
-3 17 -5 0 -24 14 -42 30 -30 28 -42 34 -60 31 -13 -2 -9 17 4 21 7 3 5 7 -6
11 -9 4 -15 3 -12 -2 3 -5 -3 -11 -15 -14 -16 -4 -18 -3 -8 9 9 11 8 14 -4 14
-8 0 -17 -3 -20 -7 -2 -5 -3 -3 -1 3 1 6 -2 17 -7 25 -7 12 -9 11 -9 -2 0 -9
-8 -23 -17 -30 -15 -12 -16 -12 -8 1 18 30 14 42 -7 23 -12 -10 -18 -12 -14
-5 4 7 1 12 -9 12 -10 0 -14 5 -9 13 5 9 4 9 -6 0 -11 -10 -16 -9 -27 5 -8 9
-12 12 -9 5z m-44 -87 c0 -2 -7 -7 -16 -10 -8 -3 -12 -2 -9 4 6 10 25 14 25 6z
m93 -13 c-6 -16 -5 -17 13 -3 18 14 18 14 -1 -10 -11 -14 -21 -27 -22 -29 -2
-3 4 52 6 57 0 1 3 2 6 2 2 0 1 -8 -2 -17z m-158 -12 c-3 -5 -1 -12 4 -15 5
-4 12 2 14 11 4 16 5 16 6 1 1 -21 -11 -29 -28 -18 -12 7 -8 30 5 30 3 0 3 -4
-1 -9z m81 -16 c-3 -9 -10 -13 -16 -10 -5 3 -10 2 -10 -4 0 -5 5 -12 10 -14 6
-3 5 -4 -2 -3 -7 2 -13 9 -13 17 0 8 6 13 13 12 6 -2 12 5 12 14 0 9 3 14 6
10 4 -3 4 -13 0 -22z m-126 11 c0 -2 -7 -7 -16 -10 -8 -3 -12 -2 -9 4 6 10 25
14 25 6z m172 -3 c-10 -4 -9 -9 4 -24 9 -10 14 -19 9 -19 -9 0 -34 31 -35 43
0 4 8 7 18 6 11 0 12 -2 4 -6z m73 -12 c-3 -6 -11 -8 -17 -5 -6 4 -9 1 -6 -7
3 -8 13 -16 23 -17 9 -2 15 0 12 5 -3 5 -2 15 4 23 6 11 9 12 9 2 0 -9 7 -11
20 -7 12 4 20 2 20 -5 0 -6 5 -8 10 -5 6 4 9 1 8 -7 -2 -8 6 -13 19 -12 18 1
20 -1 10 -17 -10 -16 -12 -16 -24 -1 -12 15 -13 15 -7 1 7 -21 -12 -34 -20
-14 -7 19 -22 19 -30 -1 -3 -8 -2 -12 4 -9 5 3 8 -4 7 -15 -1 -20 -17 -29 -17
-9 0 5 -4 7 -10 4 -6 -4 -7 1 -3 11 5 14 3 15 -15 5 -15 -8 -22 -8 -22 -1 0 5
6 10 13 10 21 0 16 29 -5 36 -21 6 -20 41 0 37 7 -2 12 2 12 9 0 6 3 9 6 5 3
-3 3 -11 -1 -16z m-222 -24 c-3 -5 5 -6 18 -3 20 6 21 5 6 -4 -9 -6 -21 -9
-25 -6 -15 9 -31 -9 -22 -24 7 -10 10 -11 10 -2 0 6 5 12 11 12 8 0 8 -5 -1
-15 -7 -8 -16 -12 -21 -9 -5 3 -9 0 -9 -5 0 -6 6 -11 14 -11 20 0 29 -17 15
-26 -7 -4 -9 -3 -6 3 4 6 -1 13 -11 16 -9 2 -25 8 -34 12 -14 5 -16 2 -13 -14
2 -12 0 -19 -6 -16 -5 4 -7 10 -4 14 2 5 -7 13 -21 20 -24 10 -25 10 -19 -11
5 -20 4 -20 -5 -6 -13 21 8 61 27 54 14 -6 28 10 16 17 -5 2 -2 2 6 0 9 -2 11
3 7 14 -5 16 -4 16 6 2 10 -14 13 -14 31 4 15 15 21 17 28 6 4 -7 5 -17 2 -22z
m127 3 c0 -5 -4 -10 -10 -10 -5 0 -10 5 -10 10 0 6 5 10 10 10 6 0 10 -4 10
-10z m-60 -20 c0 -5 -4 -10 -10 -10 -5 0 -10 5 -10 10 0 6 5 10 10 10 6 0 10
-4 10 -10z m37 -22 c-3 -8 -6 -5 -6 6 -1 11 2 17 5 13 3 -3 4 -12 1 -19z m39
-4 c1 -9 0 -13 -4 -10 -3 4 -7 14 -8 22 -1 9 0 13 4 10 3 -4 7 -14 8 -22z m58
17 c3 -4 -6 -6 -19 -3 -14 2 -25 6 -25 8 0 8 39 4 44 -5z m-164 -16 c0 -8 -2
-15 -4 -15 -2 0 -6 7 -10 15 -3 8 -1 15 4 15 6 0 10 -7 10 -15z m323 8 c-22
-8 -14 -31 15 -41 17 -7 21 -11 10 -11 -10 -1 -18 -8 -18 -16 0 -9 6 -12 17
-8 12 5 15 2 10 -10 -3 -9 -2 -19 3 -22 6 -4 10 -1 10 5 0 6 5 8 12 4 9 -6 9
-9 0 -12 -7 -2 -12 -8 -12 -13 0 -6 6 -7 13 -3 8 5 8 2 -2 -9 -12 -15 -9 -21
10 -19 3 1 6 -5 6 -12 0 -7 -10 -12 -21 -11 -26 3 -48 -13 -39 -28 3 -6 1 -7
-5 -3 -6 4 -8 14 -5 24 4 13 3 14 -6 6 -6 -6 -13 -24 -14 -40 -1 -16 -6 -32
-12 -36 -6 -5 -6 -8 2 -8 11 0 12 -24 1 -36 -4 -3 -4 -13 -1 -22 3 -10 1 -13
-4 -7 -12 14 -43 18 -43 5 0 -6 4 -9 8 -6 5 3 9 -1 9 -9 0 -8 -4 -15 -9 -15
-4 0 -8 5 -8 10 0 11 -31 10 -40 -2 -3 -3 -14 0 -24 8 -11 7 -17 17 -13 20 4
4 13 1 21 -5 11 -9 16 -9 22 0 5 8 3 9 -6 4 -9 -6 -11 -4 -5 6 5 8 5 11 0 7
-11 -11 -36 12 -28 25 3 6 1 7 -5 3 -6 -4 -8 -14 -5 -24 6 -15 5 -15 -11 -3
-15 13 -19 13 -26 1 -5 -9 -4 -20 3 -29 10 -12 9 -13 -1 -7 -7 4 -19 3 -27 -4
-10 -8 -15 -8 -21 1 -4 7 -3 9 4 5 21 -13 23 15 2 44 -12 17 -18 30 -15 30 4
0 -1 12 -10 28 -10 15 -12 21 -4 15 28 -27 31 -11 3 19 -16 18 -20 26 -10 18
18 -14 18 -13 12 10 -6 19 -5 21 3 10 7 -10 11 -11 11 -2 0 6 8 12 18 12 14 0
15 2 2 10 -13 8 -12 10 3 10 10 0 15 5 12 10 -3 6 -1 10 5 10 7 0 10 -7 7 -14
-4 -10 -1 -13 9 -9 7 3 14 0 14 -7 0 -6 5 -8 13 -4 8 5 8 2 -2 -9 -16 -20 -2
-23 19 -4 12 10 12 9 1 -5 -11 -15 -11 -18 0 -19 10 0 11 -2 2 -6 -7 -2 -13
-9 -13 -14 0 -6 6 -7 13 -3 6 4 9 3 4 -1 -4 -5 0 -17 10 -27 9 -10 11 -18 5
-18 -7 0 -7 -8 1 -24 7 -13 15 -22 20 -19 4 2 6 1 5 -4 -2 -4 2 -8 7 -8 6 0 9
4 7 8 -1 5 2 6 8 2 6 -4 17 -2 24 4 17 14 18 63 2 54 -6 -3 -6 0 2 8 6 7 12
17 12 22 0 4 -6 5 -12 1 -10 -5 -10 -4 -1 6 18 20 -3 56 -23 39 -12 -10 -13
-9 -8 5 3 9 10 16 16 16 5 0 7 4 3 9 -3 5 0 13 6 17 7 4 9 3 5 -4 -3 -6 -2
-13 4 -17 6 -4 7 -11 4 -17 -4 -6 -2 -8 4 -4 6 3 13 2 17 -4 3 -5 1 -10 -6
-10 -7 0 -9 -3 -5 -7 4 -5 14 1 22 11 8 11 14 14 14 7 0 -7 5 -9 11 -5 8 4 7
9 -2 15 -10 6 -10 9 -2 9 7 0 17 -8 22 -17 6 -10 11 -13 11 -6 0 6 -4 14 -10
18 -5 3 -7 12 -4 19 3 8 0 17 -5 21 -6 3 -8 12 -4 18 4 7 -2 5 -12 -3 -15 -12
-17 -12 -10 -1 6 10 4 12 -5 6 -9 -6 -10 -1 -5 16 4 16 3 20 -3 11 -7 -11 -10
-11 -15 3 -4 9 -3 13 3 10 6 -3 10 -1 10 4 0 6 -7 11 -15 11 -8 0 -15 -6 -15
-12 0 -10 -2 -10 -8 -1 -6 9 -11 7 -20 -8 -10 -16 -10 -20 1 -25 18 -6 18 -34
0 -34 -9 0 -11 -5 -7 -12 4 -7 4 -10 0 -6 -4 3 -6 8 -4 11 6 8 -24 37 -33 31
-5 -3 -6 2 -3 10 5 13 9 12 25 -7 10 -12 18 -17 19 -10 0 6 -4 15 -10 18 -13
8 -6 50 8 51 7 1 14 3 17 4 3 1 9 3 15 4 5 0 15 7 22 14 6 6 17 12 23 11 5 0
4 -3 -2 -6z m-1363 -9 c0 -8 -19 -13 -24 -6 -3 5 1 9 9 9 8 0 15 -2 15 -3z
m24 -12 c3 -5 -1 -9 -9 -9 -8 0 -12 4 -9 9 3 4 7 8 9 8 2 0 6 -4 9 -8z m1000
-8 c3 -8 2 -12 -4 -9 -6 3 -10 10 -10 16 0 14 7 11 14 -7z m-54 -29 c11 -13
10 -14 -4 -9 -9 3 -16 10 -16 15 0 13 6 11 20 -6z m-1214 -7 c4 -7 3 -8 -5 -4
-6 4 -20 2 -29 -6 -15 -12 -16 -11 -3 5 16 20 27 22 37 5z m1481 6 c-3 -3 -12
-4 -19 -1 -8 3 -5 6 6 6 11 1 17 -2 13 -5z m111 -40 c22 -46 13 -70 -15 -41
-12 11 -12 16 -2 22 7 5 10 4 5 -3 -3 -6 -2 -13 3 -16 5 -4 8 2 7 11 -2 10 -8
18 -14 18 -6 0 -14 3 -18 8 -4 4 -2 7 4 7 7 0 12 5 12 10 0 6 -3 9 -7 9 -19
-3 -34 2 -29 9 12 20 35 6 54 -34z m-1505 11 c-7 -21 -12 -19 -10 4 0 11 5 18
9 15 4 -3 5 -11 1 -19z m62 -4 c-3 -6 -11 -11 -16 -11 -5 0 -4 6 3 14 14 16
24 13 13 -3z m691 7 c4 -7 3 -8 -4 -4 -7 4 -12 3 -12 -2 0 -6 -8 -13 -17 -16
-15 -6 -15 -4 2 14 21 23 22 24 31 8z m-914 -20 c-7 -7 -12 -8 -12 -2 0 14 12
26 19 19 2 -3 -1 -11 -7 -17z m183 12 c-3 -6 1 -13 9 -16 9 -3 16 -11 16 -17
0 -7 -4 -7 -12 1 -17 17 -33 15 -19 -2 10 -12 8 -17 -9 -26 -11 -6 -18 -15
-15 -20 4 -6 -2 -7 -12 -3 -16 6 -16 5 -4 -11 11 -13 12 -19 2 -29 -10 -9 -11
-8 -5 6 6 17 5 18 -14 6 -17 -11 -19 -16 -9 -28 9 -11 9 -13 0 -8 -6 4 -14 3
-18 -3 -3 -5 -1 -10 5 -10 6 0 8 -5 4 -11 -4 -8 -9 -7 -15 2 -5 8 -9 11 -10 7
-5 -25 -4 -34 6 -41 5 -5 -1 -6 -15 -2 -23 5 -23 5 -7 -8 9 -8 17 -18 17 -22
0 -4 -7 -2 -15 5 -12 10 -15 10 -15 -3 0 -8 6 -18 13 -21 6 -3 1 -3 -13 1 -22
5 -23 4 -12 -9 10 -13 10 -18 -1 -30 -8 -7 -13 -21 -11 -31 1 -9 -2 -15 -6
-12 -5 3 -13 -3 -19 -12 -7 -13 -10 -14 -11 -4 0 11 -5 10 -22 -5 -13 -10 -18
-12 -11 -5 9 11 8 17 -3 29 -8 8 -13 21 -10 29 4 9 1 13 -6 11 -7 -3 -13 -10
-13 -15 0 -6 -2 -14 -5 -17 -4 -3 -6 5 -6 19 0 13 3 22 6 20 3 -2 12 0 20 5
12 7 11 10 -3 16 -17 6 -17 7 0 20 16 12 16 15 3 23 -12 8 -11 10 5 9 18 -2
20 -9 20 -58 0 -37 4 -57 11 -57 7 0 10 6 8 12 -3 7 2 18 11 25 11 9 15 9 15
1 0 -7 5 -9 11 -5 8 4 7 9 -2 15 -8 5 -9 9 -3 9 6 0 11 7 11 15 0 8 -5 11 -10
8 -6 -3 -7 -1 -3 6 4 6 13 9 19 5 7 -3 3 2 -8 11 -20 17 -20 17 5 10 l25 -6
-24 19 c-21 17 -22 20 -6 25 9 4 21 5 25 2 5 -3 7 8 5 24 -3 25 -1 29 15 26
10 -2 24 3 31 11 8 10 8 14 0 14 -6 0 -11 -5 -11 -12 0 -16 -13 -1 -16 18 -2
10 3 14 11 10 8 -3 17 -1 20 5 4 5 11 7 16 4 5 -4 9 -1 9 4 0 13 -17 14 -24 2
-3 -4 -17 -7 -31 -6 -16 2 -23 -1 -19 -7 4 -6 2 -8 -4 -4 -6 3 -13 2 -17 -4
-10 -17 -24 -11 -22 9 0 11 5 17 9 15 5 -3 5 -10 2 -16 -5 -7 -2 -8 5 -4 7 5
10 14 7 22 -3 9 0 11 11 7 10 -4 14 -2 10 4 -4 6 1 17 11 24 15 12 16 12 5 -2
-7 -9 -10 -19 -6 -22 9 -9 23 -9 22 1 -5 29 26 48 52 31 12 -7 12 -10 0 -21
-8 -7 -11 -8 -8 -2 7 12 -29 12 -40 -1 -5 -4 -2 -5 6 0 9 5 12 4 8 -2 -8 -13
23 -10 48 5 11 6 16 12 12 12 -8 0 10 40 19 40 3 0 2 -5 -1 -10z m1243 -19
c-7 -9 -13 -18 -15 -20 -1 -2 -1 5 0 16 0 11 7 20 14 20 10 0 10 -4 1 -16z
m282 -12 c0 -5 -4 -9 -10 -9 -5 0 -10 7 -10 16 0 8 5 12 10 9 6 -3 10 -10 10
-16z m99 2 c8 -14 7 -22 -7 -32 -14 -11 -15 -11 -5 1 8 9 9 19 2 32 -5 10 -7
18 -5 18 3 0 10 -9 15 -19z m-366 -6 c-3 -9 -8 -14 -10 -11 -3 3 -2 9 2 15 9
16 15 13 8 -4z m-35 -30 c-3 -3 -9 2 -12 12 -6 14 -5 15 5 6 7 -7 10 -15 7
-18z m-718 -5 c0 -5 -5 -10 -11 -10 -5 0 -7 5 -4 10 3 6 8 10 11 10 2 0 4 -4
4 -10z m-754 -15 c-8 -8 -18 -15 -22 -15 -3 0 -1 7 6 15 7 8 17 15 22 15 5 0
3 -7 -6 -15z m1685 -18 c-10 -9 -11 -8 -5 6 3 10 9 15 12 12 3 -3 0 -11 -7
-18z m-1554 -3 c0 -7 -5 -12 -11 -11 -6 1 -10 -8 -9 -20 3 -21 -2 -25 -23 -22
-14 2 -20 -23 -18 -65 2 -32 -3 -49 -16 -61 -16 -15 -17 -14 -16 7 0 13 7 27
14 31 19 12 14 26 -13 39 -19 9 -22 14 -14 25 9 10 8 17 -1 28 -7 8 -8 15 -4
15 5 0 15 -9 22 -20 7 -12 8 -20 2 -20 -5 0 -10 -4 -10 -8 0 -5 6 -9 14 -9 8
0 13 8 11 18 -4 21 19 44 34 34 7 -3 8 0 5 10 -4 10 -10 12 -18 6 -7 -6 -17
-5 -29 3 -21 16 -22 23 -3 23 8 0 15 -3 14 -6 -2 -19 4 -20 22 -3 23 22 47 25
47 6z m1666 0 c7 1 9 1 5 -1 -5 -3 -8 -12 -8 -20 0 -12 3 -13 14 -4 10 8 16 9
21 1 4 -6 1 -9 -7 -8 -9 2 -13 -8 -12 -29 0 -18 -4 -33 -9 -33 -5 0 -7 7 -4
14 4 10 1 13 -7 10 -8 -3 -20 4 -28 15 -8 12 -17 19 -20 16 -2 -3 -5 2 -5 10
0 8 7 14 16 13 9 -2 16 3 17 10 3 23 6 27 10 15 3 -7 11 -11 17 -9z m-1733
-38 c0 -3 -4 -8 -10 -11 -5 -3 -10 -1 -10 4 0 6 5 11 10 11 6 0 10 -2 10 -4z
m2697 -21 c0 -8 -4 -12 -9 -9 -5 3 -6 10 -3 15 9 13 12 11 12 -6z m-2756 -18
c-10 -9 -11 -8 -5 6 3 10 9 15 12 12 3 -3 0 -11 -7 -18z m1686 8 c0 -8 -4 -12
-9 -9 -5 3 -6 10 -3 15 9 13 12 11 12 -6z m76 -3 c10 -10 14 -22 10 -25 -3 -4
-1 -7 5 -7 7 0 12 -5 12 -11 0 -5 -4 -7 -10 -4 -5 3 -10 1 -10 -4 0 -6 5 -11
11 -11 6 0 1 -9 -12 -20 -13 -10 -19 -19 -13 -20 6 0 11 -7 11 -16 0 -15 -1
-15 -12 0 -16 22 -27 8 -14 -18 9 -18 8 -19 -3 -6 -7 8 -18 16 -23 17 -6 1
-19 5 -29 9 -13 5 -17 4 -12 -4 3 -6 1 -14 -5 -18 -8 -4 -9 -3 -5 4 4 7 3 12
-3 12 -5 0 -11 -3 -14 -7 -2 -5 -3 -3 -1 3 1 6 -3 17 -9 23 -9 9 -8 14 3 21 9
6 23 2 41 -11 18 -12 30 -16 34 -9 4 6 12 7 18 4 8 -4 7 -2 -1 7 -11 12 -14
12 -22 -1 -5 -8 -10 -13 -11 -10 0 3 -2 13 -4 23 -2 12 2 17 13 15 10 -2 18 4
18 12 1 8 3 20 4 25 1 6 2 13 1 18 0 4 5 7 12 7 8 0 7 4 -3 10 -8 5 -10 10 -4
10 6 0 18 -8 27 -18z m1772 -12 c3 -6 -1 -7 -9 -4 -18 7 -21 14 -7 14 6 0 13
-4 16 -10z m-1905 -98 c0 -4 -9 -13 -20 -20 -16 -10 -20 -10 -18 0 2 7 -3 12
-10 10 -8 -1 -11 2 -7 8 9 14 -8 13 -24 -2 -11 -10 -13 -10 -7 0 4 6 2 12 -4
12 -15 0 -7 25 8 26 23 3 24 4 13 17 -6 8 -8 17 -4 20 6 7 73 -59 73 -71z
m-1580 58 c0 -5 -4 -10 -10 -10 -5 0 -10 5 -10 10 0 6 5 10 10 10 6 0 10 -4
10 -10z m-115 -41 c-4 -5 -12 -9 -18 -8 -9 0 -8 2 1 6 6 2 9 10 6 15 -4 7 -2
8 5 4 6 -4 9 -12 6 -17z m-125 1 c0 -5 -5 -10 -11 -10 -5 0 -7 5 -4 10 3 6 8
10 11 10 2 0 4 -4 4 -10z m120 -24 c0 -2 -8 -10 -17 -17 -16 -13 -17 -12 -4 4
13 16 21 21 21 13z m2004 -54 c3 -5 -1 -9 -9 -9 -8 0 -12 4 -9 9 3 4 7 8 9 8
2 0 6 -4 9 -8z m-1844 -6 c0 -3 -4 -8 -10 -11 -5 -3 -10 -1 -10 4 0 6 5 11 10
11 6 0 10 -2 10 -4z m3560 -90 c0 -3 -4 -8 -10 -11 -5 -3 -10 -1 -10 4 0 6 5
11 10 11 6 0 10 -2 10 -4z m0 -192 c0 -8 -19 -13 -24 -6 -3 5 1 9 9 9 8 0 15
-2 15 -3z m-98 -246 c-7 -7 -12 -8 -12 -2 0 14 12 26 19 19 2 -3 -1 -11 -7
-17z m-4522 -88 c0 -5 -7 -7 -15 -4 -8 4 -15 8 -15 10 0 2 7 4 15 4 8 0 15 -4
15 -10z m-296 -78 c3 -5 -1 -9 -9 -9 -8 0 -12 4 -9 9 3 4 7 8 9 8 2 0 6 -4 9
-8z m60 -18 c5 -14 4 -15 -9 -4 -17 14 -19 20 -6 20 5 0 12 -7 15 -16z m196 6
c0 -5 -10 -15 -22 -21 -23 -12 -23 -12 -4 10 21 23 26 26 26 11z m4027 -242
c-3 -8 -6 -5 -6 6 -1 11 2 17 5 13 3 -3 4 -12 1 -19z m-4490 -153 c0 -8 -4
-12 -9 -9 -5 3 -6 10 -3 15 9 13 12 11 12 -6z m-462 -234 c3 -5 2 -12 -3 -15
-5 -3 -9 1 -9 9 0 17 3 19 12 6z m3865 -311 c0 -5 -4 -10 -10 -10 -5 0 -10 5
-10 10 0 6 5 10 10 10 6 0 10 -4 10 -10z m-789 -223 c-10 -9 -11 -8 -5 6 3 10
9 15 12 12 3 -3 0 -11 -7 -18z m-3080 -14 c13 -16 12 -17 -3 -4 -10 7 -18 15
-18 17 0 8 8 3 21 -13z m1173 -161 c3 -5 -1 -9 -9 -9 -8 0 -12 4 -9 9 3 4 7 8
9 8 2 0 6 -4 9 -8z"/>
<path d="M3945 4348 c2 -10 -1 -18 -6 -18 -6 0 -7 -5 -3 -11 4 -8 9 -7 15 2 4
7 5 17 3 21 -9 14 9 9 27 -8 16 -14 17 -14 15 0 -3 21 -13 29 -35 31 -14 1
-18 -4 -16 -17z"/>
<path d="M3666 4354 c-3 -8 -10 -13 -15 -9 -5 3 -17 -5 -25 -17 -9 -12 -16
-17 -16 -10 0 7 -5 10 -11 6 -8 -4 -7 -9 2 -15 9 -6 18 -3 25 6 10 14 12 14
18 0 7 -19 28 -10 24 10 -2 8 6 21 17 29 17 13 17 15 4 16 -9 0 -20 -7 -23
-16z m-8 -39 c-3 -3 -9 2 -12 12 -6 14 -5 15 5 6 7 -7 10 -15 7 -18z"/>
<path d="M3849 4165 c-36 -19 -43 -41 -18 -58 16 -12 17 -16 5 -20 -18 -7 -16
-25 6 -55 15 -22 16 -23 22 -5 4 11 12 20 19 20 6 0 19 2 27 4 8 2 14 -1 15
-8 0 -18 15 -28 15 -10 0 9 -4 18 -10 22 -5 3 -7 12 -4 19 3 8 -4 21 -16 29
-15 11 -18 17 -9 22 8 6 7 10 -5 17 -9 5 -21 6 -26 3 -6 -3 -7 1 -4 9 3 9 11
13 17 9 6 -3 7 -1 3 5 -9 14 -5 15 -37 -3z m6 -29 c-2 -14 3 -27 10 -30 9 -3
11 2 8 15 -3 11 0 19 6 19 7 0 11 -6 10 -12 -3 -26 1 -38 14 -35 6 1 12 -5 12
-13 0 -8 -6 -14 -12 -12 -7 1 -13 -2 -13 -8 0 -5 -3 -9 -7 -9 -22 4 -33 -2
-27 -13 5 -10 4 -10 -6 -1 -16 15 -23 46 -9 37 5 -3 6 -10 3 -16 -4 -6 -3 -8
3 -5 13 8 9 47 -6 56 -16 10 -5 48 15 51 1 0 0 -11 -1 -24z"/>
<path d="M3870 4080 c0 -5 5 -10 10 -10 6 0 10 5 10 10 0 6 -4 10 -10 10 -5 0
-10 -4 -10 -10z"/>
<path d="M4019 4023 c-13 -16 -12 -17 4 -4 9 7 17 15 17 17 0 8 -8 3 -21 -13z"/>
<path d="M2490 4140 c0 -5 5 -10 11 -10 5 0 7 5 4 10 -3 6 -8 10 -11 10 -2 0
-4 -4 -4 -10z"/>
<path d="M2456 4084 c-23 -23 -20 -30 4 -9 11 10 20 20 20 22 0 7 -9 2 -24
-13z"/>
<path d="M2415 4040 c3 -5 8 -10 11 -10 2 0 4 5 4 10 0 6 -5 10 -11 10 -5 0
-7 -4 -4 -10z"/>
<path d="M2325 3981 c-3 -5 -2 -12 3 -15 5 -3 9 1 9 9 0 17 -3 19 -12 6z"/>
<path d="M2379 3928 c0 -2 -2 -11 -4 -21 -3 -15 -1 -16 11 -6 7 6 11 15 8 20
-5 9 -13 12 -15 7z"/>
<path d="M4085 4101 c-3 -6 -1 -11 5 -11 6 0 9 -4 5 -9 -3 -5 -1 -12 4 -15 16
-10 20 8 6 27 -8 12 -15 14 -20 8z"/>
<path d="M4075 4029 c3 -16 0 -19 -12 -15 -13 5 -14 4 -4 -8 9 -11 9 -15 -1
-19 -10 -3 -10 -8 -2 -17 9 -9 14 -9 20 1 11 18 13 69 3 75 -4 2 -6 -5 -4 -17z"/>
<path d="M3966 3961 c-4 -5 -2 -12 3 -15 5 -4 12 -2 15 3 4 5 2 12 -3 15 -5 4
-12 2 -15 -3z"/>
<path d="M3890 3971 c-8 -6 -18 -7 -24 -4 -5 3 -6 1 -2 -6 4 -6 12 -9 17 -5 6
3 19 -2 29 -11 23 -21 36 -3 14 19 -18 19 -15 18 -34 7z m31 -18 c13 -16 12
-17 -3 -4 -17 13 -22 21 -14 21 2 0 10 -8 17 -17z"/>
<path d="M3895 4500 c3 -5 8 -10 11 -10 2 0 4 5 4 10 0 6 -5 10 -11 10 -5 0
-7 -4 -4 -10z"/>
<path d="M2870 4280 c0 -5 5 -10 11 -10 5 0 7 5 4 10 -3 6 -8 10 -11 10 -2 0
-4 -4 -4 -10z"/>
<path d="M4165 4281 c-6 -11 13 -26 22 -17 4 3 1 6 -6 6 -7 0 -9 5 -6 10 3 6
4 10 1 10 -3 0 -7 -4 -11 -9z"/>
<path d="M5570 4261 c0 -7 -5 -9 -12 -5 -7 5 -8 3 -3 -5 5 -9 10 -10 18 -2 6
6 8 14 4 18 -4 3 -7 1 -7 -6z"/>
<path d="M5196 4183 c-6 -14 -5 -15 5 -6 7 7 10 15 7 18 -3 3 -9 -2 -12 -12z"/>
<path d="M5675 4190 c-3 -5 -1 -10 4 -10 6 0 11 5 11 10 0 6 -2 10 -4 10 -3 0
-8 -4 -11 -10z"/>
<path d="M5886 4005 c4 -8 11 -15 16 -15 6 0 5 6 -2 15 -7 8 -14 15 -16 15 -2
0 -1 -7 2 -15z"/>
<path d="M4170 3961 c0 -6 4 -12 8 -15 5 -3 9 1 9 9 0 8 -4 15 -9 15 -4 0 -8
-4 -8 -9z"/>
<path d="M4156 3921 c-3 -5 2 -15 12 -22 15 -12 16 -12 5 2 -7 9 -10 19 -6 22
3 4 4 7 0 7 -3 0 -8 -4 -11 -9z"/>
<path d="M1925 3871 c-3 -5 -2 -12 3 -15 5 -3 9 1 9 9 0 17 -3 19 -12 6z"/>
<path d="M1323 3312 c-8 -14 -8 -19 1 -19 7 0 13 9 13 19 1 10 1 18 0 18 -1 0
-7 -8 -14 -18z"/>
<path d="M1136 3177 c3 -10 9 -15 12 -12 3 3 0 11 -7 18 -10 9 -11 8 -5 -6z"/>
<path d="M5746 3174 c-8 -22 -4 -25 11 -9 7 8 9 16 4 19 -5 3 -12 -1 -15 -10z"/>
<path d="M847 3159 c7 -7 15 -10 18 -7 3 3 -2 9 -12 12 -14 6 -15 5 -6 -5z"/>
<path d="M843 3023 c4 -3 2 -12 -4 -20 -9 -9 -8 -13 0 -13 6 0 11 2 11 4 0 2
3 11 6 20 4 10 1 16 -7 16 -7 0 -9 -3 -6 -7z"/>
<path d="M796 2711 c-4 -5 -2 -12 3 -15 5 -4 12 -2 15 3 4 5 2 12 -3 15 -5 4
-12 2 -15 -3z"/>
<path d="M719 2693 c-12 -16 -12 -17 2 -6 9 7 20 9 24 5 5 -4 5 -1 1 6 -9 16
-11 15 -27 -5z"/>
<path d="M650 2689 c0 -5 5 -7 10 -4 6 3 10 8 10 11 0 2 -4 4 -10 4 -5 0 -10
-5 -10 -11z"/>
<path d="M515 2680 c-3 -5 -1 -10 4 -10 6 0 11 5 11 10 0 6 -2 10 -4 10 -3 0
-8 -4 -11 -10z"/>
<path d="M375 2640 c-3 -5 -1 -10 4 -10 6 0 11 5 11 10 0 6 -2 10 -4 10 -3 0
-8 -4 -11 -10z"/>
<path d="M4870 2542 c0 -6 -13 -10 -30 -10 -16 1 -37 -5 -47 -13 -15 -12 -16
-12 -9 1 4 8 -1 4 -13 -10 l-20 -25 5 25 c5 25 5 25 -6 2 -5 -13 -14 -21 -20
-17 -6 3 -7 0 -4 -9 3 -9 11 -13 18 -9 7 4 7 1 -1 -7 -10 -11 -8 -17 8 -31 21
-18 48 -16 50 5 0 6 4 2 9 -9 5 -12 9 -14 9 -6 1 11 5 10 17 -5 8 -10 13 -13
9 -6 -4 8 3 12 22 12 22 0 25 -2 13 -10 -9 -6 -10 -10 -3 -10 6 0 15 5 19 11
4 8 9 7 15 -2 6 -10 9 -11 9 -1 0 6 5 12 11 12 5 0 7 -4 4 -10 -8 -13 1 -13
27 1 18 10 20 9 15 -5 -4 -11 -3 -15 4 -11 5 4 18 1 27 -7 15 -12 16 -11 4 4
-10 12 -10 18 -1 24 8 5 9 3 4 -6 -6 -10 -1 -12 19 -8 26 5 26 5 9 -15 -18
-20 -18 -20 11 -1 l29 18 -13 -24 c-12 -23 -12 -24 3 -11 12 9 17 10 17 2 0
-7 4 -10 9 -6 5 3 13 0 17 -6 4 -8 3 -9 -4 -5 -19 11 -14 -5 6 -21 16 -14 16
-14 -1 -9 -10 3 -15 2 -12 -3 3 -5 0 -13 -6 -16 -5 -4 -8 -13 -5 -21 5 -12 2
-12 -15 -3 -15 8 -19 8 -15 0 4 -6 2 -11 -4 -11 -6 0 -8 -6 -4 -12 4 -7 4 -10
-1 -6 -4 4 -15 2 -23 -5 -13 -9 -14 -9 -8 1 9 15 1 15 -25 1 -15 -8 -25 -7
-37 3 -15 11 -15 11 -4 -3 10 -14 10 -18 -4 -23 -9 -3 -21 -3 -27 1 -9 5 -9 3
0 -8 10 -12 8 -15 -8 -16 -12 -1 -17 3 -13 9 4 7 2 8 -4 4 -7 -4 -12 -15 -13
-24 0 -11 -2 -13 -6 -4 -4 10 -9 9 -19 -5 -13 -17 -14 -17 -8 0 5 13 2 16 -10
11 -9 -3 -13 -10 -10 -15 3 -6 -6 -7 -23 -4 -23 5 -25 4 -13 -5 12 -10 11 -11
-8 -7 -17 4 -22 2 -18 -8 3 -9 0 -12 -9 -8 -8 3 -12 10 -9 17 3 6 -1 3 -9 -6
-16 -21 -42 -25 -31 -5 6 9 5 9 -8 0 -8 -7 -19 -9 -23 -5 -5 4 -5 1 -1 -6 4
-7 11 -10 16 -7 5 3 11 2 14 -3 3 -5 -16 -8 -42 -7 -48 1 -87 -19 -75 -38 3
-6 1 -7 -5 -3 -6 4 -8 14 -5 23 5 13 1 12 -17 -5 -18 -17 -26 -19 -32 -10 -7
12 -9 11 -12 -11 0 -5 -5 -13 -10 -18 -5 -4 -6 -3 -3 3 4 7 -2 14 -12 17 -14
3 -18 1 -14 -9 7 -20 -7 -17 -23 4 -12 16 -12 16 -11 -2 1 -13 -5 -19 -20 -21
-12 -1 -20 1 -18 5 2 3 -5 6 -15 6 -15 0 -17 -4 -8 -21 10 -17 9 -18 -4 -8 -8
7 -18 10 -21 6 -4 -3 -13 -1 -21 6 -11 9 -15 8 -20 -4 -3 -9 -2 -13 3 -10 5 3
12 2 15 -3 2 -4 -11 -8 -30 -8 -19 0 -34 5 -34 11 0 6 -3 7 -8 0 -4 -5 -18
-16 -31 -23 -21 -12 -23 -12 -18 2 4 10 1 13 -8 9 -8 -3 -13 -9 -10 -13 3 -4
-2 -10 -10 -13 -10 -4 -12 -1 -9 11 4 11 -2 8 -16 -8 l-23 -25 7 25 c5 17 4
21 -2 11 -6 -8 -17 -11 -27 -7 -15 5 -16 4 -5 -9 11 -13 11 -16 -1 -13 -8 2
-17 8 -21 13 -4 6 -8 2 -8 -7 0 -10 -5 -18 -11 -18 -5 0 -8 4 -4 9 3 5 1 12
-5 16 -5 3 -10 -1 -10 -11 0 -15 -2 -15 -27 2 -22 13 -25 14 -15 2 10 -13 10
-17 -3 -22 -11 -4 -14 -2 -9 7 5 9 4 9 -7 0 -7 -7 -17 -13 -22 -13 -4 0 -5 6
-2 13 4 6 0 4 -7 -5 -9 -11 -19 -14 -28 -8 -16 10 -43 -7 -34 -21 3 -5 0 -18
-6 -29 -7 -13 -7 -20 0 -20 5 0 10 6 10 13 0 8 7 14 15 14 10 0 12 -4 5 -12
-11 -13 -3 -25 14 -25 6 0 4 5 -4 10 -11 7 -8 10 15 10 17 0 36 -5 42 -11 9
-9 11 -6 7 12 -2 13 -2 18 2 12 3 -7 12 -13 20 -13 8 0 14 6 14 13 0 9 3 8 9
-2 6 -9 10 -9 12 -2 2 6 16 12 32 13 15 1 27 7 27 13 1 5 7 -1 15 -15 14 -25
14 -25 15 -2 0 12 5 22 11 22 6 0 8 -8 5 -17 -5 -15 -4 -15 9 1 8 11 15 15 15
8 0 -7 8 -5 20 5 21 18 80 27 80 13 0 -4 7 -11 16 -14 10 -4 13 -2 8 6 -5 8
-2 9 9 5 11 -4 21 1 28 14 8 16 14 18 22 10 14 -14 30 -15 22 -1 -3 6 -2 10 4
10 5 0 11 -6 14 -12 4 -10 7 -10 18 0 7 6 21 12 32 12 10 0 15 4 12 10 -3 6 1
7 9 4 9 -3 14 -9 11 -13 -2 -4 2 -8 9 -8 9 0 12 7 8 16 -3 9 -2 13 3 9 4 -4
15 -2 23 5 11 8 14 8 9 0 -4 -6 -3 -14 2 -17 5 -4 11 1 13 11 3 15 4 15 21 -1
19 -20 24 -7 5 13 -11 11 -9 12 8 2 18 -9 25 -7 38 12 l17 22 -6 -25 c-5 -21
-4 -22 5 -8 6 10 19 15 31 13 18 -4 19 -2 7 12 -7 9 -8 14 -3 11 6 -4 17 -3
25 2 9 5 20 4 29 -3 12 -9 13 -9 7 1 -4 7 -2 12 4 12 6 0 8 6 4 13 -4 6 1 4
12 -5 14 -12 23 -14 34 -7 13 9 13 10 -1 6 -9 -3 -16 1 -16 8 0 9 8 10 29 4
16 -4 26 -4 23 1 -3 5 -1 11 5 15 5 3 10 1 10 -5 0 -6 5 -8 10 -5 6 4 8 10 5
15 -3 5 0 12 6 16 7 4 9 3 6 -3 -4 -6 0 -13 8 -17 8 -3 17 -1 20 5 4 5 11 6
17 3 7 -4 8 -2 4 4 -5 8 2 12 18 12 14 0 26 5 26 11 0 5 -5 7 -12 3 -7 -4 -8
-3 -4 5 6 9 11 9 24 -1 13 -11 15 -11 10 4 -7 17 7 19 31 4 10 -6 12 -5 7 2
-4 7 -2 12 4 12 6 0 9 4 5 9 -3 5 0 13 6 17 7 4 9 3 5 -4 -3 -6 -2 -13 4 -17
5 -3 10 -3 10 2 0 4 13 17 28 28 27 19 27 19 12 0 -14 -18 -14 -19 1 -7 10 7
27 15 39 17 13 2 25 7 29 11 3 4 -2 5 -11 1 -9 -3 -19 0 -22 8 -3 9 1 12 15
10 15 -3 19 0 15 10 -3 9 1 12 15 10 15 -3 17 -1 10 13 -10 19 10 57 23 45 4
-4 4 0 0 10 -3 9 -11 17 -18 18 -6 0 -2 4 9 9 l20 9 -20 0 c-16 1 -17 3 -6 10
12 8 12 12 -2 25 -9 9 -13 24 -10 33 5 12 3 14 -7 8 -10 -6 -12 -4 -6 10 5 15
4 16 -9 5 -13 -11 -15 -9 -16 11 -1 19 -2 20 -6 5 -4 -17 -6 -16 -17 5 -6 13
-17 25 -24 25 -7 1 -19 2 -28 3 -9 0 -12 6 -8 13 4 7 3 8 -5 4 -6 -4 -9 -11
-6 -16 3 -4 -4 -6 -15 -3 -11 3 -17 9 -14 14 3 5 0 9 -5 9 -6 0 -11 -4 -11
-10 0 -5 -5 -10 -11 -10 -5 0 -7 6 -3 13 5 8 2 8 -9 -2 -20 -16 -23 -2 -4 19
10 12 9 12 -6 0 -21 -16 -56 -18 -76 -5 -10 6 -13 4 -9 -6 4 -10 -1 -15 -13
-15 -14 0 -15 3 -7 13 6 8 8 16 4 20 -3 3 -6 1 -6 -5z m-96 -98 c3 -8 2 -12
-4 -9 -6 3 -10 10 -10 16 0 14 7 11 14 -7z m236 -198 c0 -3 -4 -8 -10 -11 -5
-3 -10 -1 -10 4 0 6 5 11 10 11 6 0 10 -2 10 -4z m-35 -16 c-3 -5 -12 -10 -18
-10 -7 0 -6 4 3 10 19 12 23 12 15 0z m-70 -99 c3 -5 2 -12 -3 -15 -5 -3 -9 1
-9 9 0 17 3 19 12 6z m-264 -24 c-10 -9 -11 -8 -5 6 3 10 9 15 12 12 3 -3 0
-11 -7 -18z m-641 -163 c0 -8 -19 -13 -24 -6 -3 5 1 9 9 9 8 0 15 -2 15 -3z"/>
<path d="M5195 2431 c-3 -5 -2 -12 3 -15 5 -3 9 1 9 9 0 17 -3 19 -12 6z"/>
<path d="M5196 2302 c-3 -5 1 -9 9 -9 8 0 12 4 9 9 -3 4 -7 8 -9 8 -2 0 -6 -4
-9 -8z"/>
<path d="M310 2026 c0 -2 7 -7 16 -10 8 -3 12 -2 9 4 -6 10 -25 14 -25 6z"/>
<path d="M107 1954 c-3 -3 -3 -13 1 -22 5 -15 4 -15 -11 -3 -16 12 -17 12 -10
-5 6 -17 5 -17 -10 -5 -15 12 -17 12 -11 -4 6 -14 4 -16 -7 -10 -12 7 -12 6
-1 -7 12 -14 10 -16 -10 -11 -18 4 -20 3 -8 -6 13 -9 13 -11 -2 -11 -10 0 -18
-5 -18 -11 0 -5 5 -7 10 -4 6 3 10 1 10 -4 0 -6 -4 -11 -8 -11 -13 0 -7 -47 9
-66 12 -15 12 -16 0 -9 -10 5 -12 4 -7 -3 4 -7 14 -12 22 -12 17 0 18 -12 2
-29 -7 -7 -8 -12 -3 -11 29 6 56 -1 49 -12 -5 -10 -4 -10 6 -1 17 16 40 5 40
-20 0 -20 0 -21 16 -1 8 10 13 13 9 7 -6 -12 8 -18 30 -13 6 1 20 2 32 2 12 0
29 11 37 23 14 21 13 24 -3 39 -10 9 -27 16 -39 16 -12 0 -22 6 -22 13 0 8 -4
7 -10 -3 -8 -13 -10 -12 -10 3 0 9 -5 17 -11 17 -5 0 -8 -4 -4 -9 3 -5 1 -13
-5 -16 -6 -4 -10 -3 -9 2 4 17 -14 43 -25 36 -6 -4 -4 1 4 12 14 17 13 17 -10
11 -14 -4 -20 -4 -15 1 16 13 19 46 3 38 -11 -7 -11 -5 0 6 11 12 14 12 23 -1
7 -11 8 -7 3 13 -5 20 -3 26 7 24 8 -2 11 -2 6 0 -4 3 -4 10 -1 15 4 7 2 8 -4
4 -16 -10 -15 7 1 23 10 11 9 12 -1 7 -7 -4 -19 -3 -26 3 -7 6 -15 8 -19 5z
m162 -228 c8 -10 8 -16 -3 -25 -11 -9 -16 -9 -22 0 -5 8 -3 9 6 4 10 -6 12 -3
8 13 -7 26 -5 27 11 8z"/>
<path d="M4220 1945 c-8 -10 -8 -15 1 -21 7 -4 9 -3 6 3 -9 14 18 24 30 12 7
-7 12 -6 15 3 7 17 -38 20 -52 3z"/>
<path d="M3876 1933 c-6 -14 -5 -15 5 -6 7 7 10 15 7 18 -3 3 -9 -2 -12 -12z"/>
<path d="M4095 1920 c-3 -5 -1 -10 4 -10 6 0 11 5 11 10 0 6 -2 10 -4 10 -3 0
-8 -4 -11 -10z"/>
<path d="M635 1889 c-3 -4 2 -6 10 -5 21 3 28 13 10 13 -9 0 -18 -4 -20 -8z"/>
<path d="M2443 1843 c0 -9 4 -10 14 -2 7 6 13 12 13 14 0 1 -6 2 -13 2 -8 0
-14 -6 -14 -14z"/>
<path d="M1961 1824 c0 -11 3 -14 6 -6 3 7 2 16 -1 19 -3 4 -6 -2 -5 -13z"/>
<path d="M2055 1830 c-3 -5 -1 -10 4 -10 6 0 11 5 11 10 0 6 -2 10 -4 10 -3 0
-8 -4 -11 -10z"/>
<path d="M3207 1743 c-4 -3 -7 -11 -7 -17 0 -6 5 -4 10 4 5 8 10 10 10 4 0 -6
-7 -17 -16 -24 -12 -11 -15 -11 -12 0 2 10 -9 14 -38 15 -33 1 -41 -2 -36 -13
4 -11 2 -13 -9 -6 -22 14 -41 14 -36 0 3 -7 -1 -13 -9 -13 -7 0 -10 5 -7 11 4
6 -1 5 -10 -3 -14 -11 -17 -11 -17 0 -1 9 -4 8 -11 -4 -6 -10 -15 -14 -22 -10
-16 10 -47 11 -47 2 0 -5 -7 -6 -15 -3 -8 4 -15 1 -15 -6 0 -6 -4 -9 -10 -5
-5 3 -6 13 -3 23 3 9 3 14 -1 10 -4 -3 -9 -14 -10 -24 -2 -10 -9 -20 -17 -22
-11 -3 -11 -1 1 7 8 6 13 11 10 12 -3 0 -13 2 -23 4 -9 2 -15 0 -12 -5 9 -15
-24 -19 -39 -5 -12 13 -15 13 -20 0 -7 -20 -21 -19 -42 3 -17 16 -18 16 -11
-1 6 -15 3 -17 -13 -12 -16 5 -19 3 -14 -12 6 -16 6 -17 -7 -1 -14 17 -62 19
-76 4 -5 -5 -2 -6 6 -1 9 5 12 4 7 -3 -9 -15 -38 -3 -29 12 3 6 -4 2 -16 -8
-16 -14 -20 -16 -16 -5 4 12 -2 15 -24 15 -17 0 -28 -3 -25 -7 2 -5 11 -6 19
-2 8 3 15 0 15 -7 0 -6 -4 -8 -10 -5 -5 3 -10 0 -10 -7 0 -10 -2 -10 -9 1 -5
7 -14 10 -20 7 -6 -4 -11 -1 -11 6 0 8 -5 6 -11 -4 -11 -20 -29 -24 -29 -7 0
5 4 7 10 4 6 -4 7 1 3 11 -5 15 -7 15 -15 0 -5 -9 -14 -16 -19 -16 -6 0 -7 4
-4 10 7 12 -27 0 -36 -12 -3 -5 -16 -10 -28 -11 -20 -1 -20 -3 -6 -13 9 -7 16
-15 16 -18 -3 -23 1 -28 19 -23 14 3 20 0 20 -10 0 -14 2 -14 18 0 15 14 19
15 19 2 0 -8 -5 -11 -10 -8 -6 4 -7 1 -2 -7 6 -10 11 -9 21 4 9 13 13 14 17 4
4 -10 8 -10 17 2 10 12 11 11 7 -8 -3 -12 -1 -20 4 -16 5 3 9 12 9 20 0 8 5
12 10 9 6 -4 7 -11 4 -17 -5 -7 -2 -8 5 -4 7 5 10 15 6 25 -4 10 1 8 15 -6 11
-13 23 -23 26 -23 2 0 -1 10 -7 23 -11 19 -11 21 3 9 12 -9 18 -10 23 -2 5 8
14 7 30 -4 16 -11 25 -12 33 -4 8 8 15 8 25 0 11 -9 14 -8 14 3 0 8 -4 12 -8
9 -4 -2 -11 1 -15 8 -4 7 -3 10 1 5 5 -4 16 0 26 9 11 10 19 12 24 4 3 -6 3
-9 -2 -8 -4 2 -8 -1 -8 -7 0 -5 3 -9 8 -7 4 1 7 -3 7 -9 0 -6 7 -3 16 5 17 17
39 12 28 -6 -4 -7 -2 -8 4 -4 9 5 9 13 1 27 -10 20 -10 20 17 2 22 -14 27 -15
22 -3 -4 11 2 15 27 15 28 0 31 -2 22 -15 -6 -8 0 -5 13 6 25 21 56 22 44 2
-5 -7 -2 -8 5 -4 7 5 10 14 7 22 -3 7 0 16 6 20 7 5 8 2 3 -6 -6 -10 -4 -12
11 -6 15 6 17 5 7 -5 -23 -23 -14 -31 9 -9 23 21 45 21 40 0 -3 -11 0 -11 13
0 9 7 14 19 11 27 -3 7 -1 13 4 13 6 0 10 -4 10 -10 0 -15 71 -5 81 11 5 11
21 15 49 13 38 -2 52 6 56 33 1 6 -4 9 -12 6 -9 -3 -12 0 -9 9 6 16 -18 42
-28 31z m-45 -34 c2 -2 1 -3 -1 -2 -2 2 -9 -2 -16 -7 -8 -7 -12 -5 -12 4 0 12
22 16 29 5z m88 -23 c0 -3 -4 -8 -10 -11 -5 -3 -10 -1 -10 4 0 6 5 11 10 11 6
0 10 -2 10 -4z m-560 -32 c0 -8 -19 -13 -24 -6 -3 5 1 9 9 9 8 0 15 -2 15 -3z
m445 -4 c3 -6 -1 -7 -9 -4 -18 7 -21 14 -7 14 6 0 13 -4 16 -10z m-460 -69 c3
-5 2 -12 -3 -15 -5 -3 -9 1 -9 9 0 17 3 19 12 6z"/>
<path d="M2996 1707 c3 -10 9 -15 12 -12 3 3 0 11 -7 18 -10 9 -11 8 -5 -6z"/>
<path d="M499 1698 c-1 -7 -1 -16 0 -20 0 -4 -6 -5 -14 -2 -8 4 -12 11 -9 18
3 6 -3 1 -14 -11 -11 -12 -21 -20 -23 -18 -3 2 -5 -10 -6 -27 0 -20 2 -26 7
-17 5 7 6 17 4 21 -3 4 2 5 11 1 14 -5 14 -8 3 -15 -10 -8 -10 -11 0 -15 6 -2
10 -8 8 -12 -3 -4 4 -8 15 -8 10 -1 19 3 19 8 0 5 6 4 14 -3 9 -9 10 -15 3
-20 -5 -3 2 -5 16 -5 16 1 22 6 16 12 -5 5 -9 13 -9 19 0 5 8 0 18 -12 15 -17
21 -19 32 -9 7 7 10 7 7 2 -8 -16 30 -38 39 -23 5 7 3 8 -6 3 -9 -6 -11 -4 -5
5 6 9 4 11 -5 5 -9 -5 -11 -4 -6 4 6 8 12 9 20 2 8 -7 17 -7 24 -1 9 7 9 7 2
-2 -14 -17 -12 -25 5 -25 8 0 12 4 10 8 -3 4 3 6 12 4 10 -2 22 -4 26 -4 5 -1
6 -5 3 -9 -3 -5 1 -9 9 -9 8 0 12 5 8 10 -3 5 4 6 18 1 13 -4 31 -7 39 -7 8 0
21 -5 29 -11 11 -8 13 -8 8 0 -4 7 3 14 18 16 18 4 23 2 16 -6 -7 -8 -4 -12
10 -13 11 -1 17 1 15 5 -3 4 4 8 15 8 10 0 19 -3 19 -6 0 -3 12 -7 26 -8 24
-2 25 0 13 16 -12 15 -12 16 1 6 8 -6 30 -10 48 -9 17 0 32 -2 32 -5 0 -3 11
-6 26 -6 23 -2 24 -1 7 12 -17 12 -16 13 5 7 13 -3 26 -12 29 -20 4 -11 8 -10
20 4 8 11 11 12 7 3 -5 -12 -4 -12 6 -3 8 7 21 9 35 3 12 -5 28 -4 36 1 8 5
21 9 29 9 13 0 13 -1 0 -10 -12 -7 -10 -9 7 -8 14 2 19 7 15 18 -5 12 -1 12
22 -4 16 -10 26 -14 22 -8 -3 5 1 12 9 16 9 3 15 0 15 -9 0 -18 16 -20 26 -3
4 7 3 8 -4 4 -8 -5 -10 -1 -5 10 6 16 7 15 20 -2 7 -10 13 -13 13 -7 0 6 13 9
30 7 19 -2 30 1 30 9 0 8 4 7 10 -3 8 -12 13 -13 29 -3 16 10 22 9 31 -3 10
-11 16 -12 26 -3 8 6 14 8 14 3 0 -5 5 -2 10 6 7 11 10 12 10 2 0 -10 5 -9 17
3 16 16 17 16 30 -1 12 -16 13 -16 13 -1 0 9 4 17 10 17 5 0 7 -8 4 -17 -5
-14 -4 -15 4 -4 5 7 15 10 21 7 6 -4 11 -2 11 3 0 6 5 11 11 11 5 0 8 -4 4 -9
-3 -5 0 -13 6 -17 8 -4 9 -3 5 4 -4 7 -2 13 3 13 6 1 16 2 22 3 7 0 15 10 20
21 4 11 8 14 8 6 1 -8 4 -11 8 -8 3 4 -2 16 -12 27 -10 11 -15 23 -12 27 4 3
7 2 7 -4 0 -6 6 -13 13 -16 8 -3 14 1 14 9 0 7 -4 11 -8 8 -4 -2 -10 0 -14 5
-9 16 -37 0 -31 -18 5 -14 5 -14 -6 -1 -17 20 -54 48 -46 35 4 -6 -2 -17 -14
-24 -11 -7 -17 -8 -14 -3 3 6 -1 12 -9 15 -9 4 -12 1 -9 -8 5 -11 0 -12 -25
-5 -29 8 -45 -3 -18 -13 6 -3 2 -4 -10 -4 -12 1 -20 4 -17 8 2 4 0 10 -6 14
-5 3 -10 1 -10 -4 0 -6 -9 -11 -21 -11 -13 0 -18 4 -13 13 5 8 2 7 -9 -2 -16
-12 -17 -12 -12 5 4 12 0 9 -9 -6 -10 -17 -15 -20 -16 -9 0 9 -7 16 -15 16
-11 0 -12 -4 -4 -13 7 -8 6 -14 -2 -20 -8 -4 -9 -3 -5 4 4 7 1 12 -8 12 -9 0
-16 5 -16 10 0 6 -5 10 -11 10 -5 0 -7 -4 -4 -10 3 -5 2 -10 -4 -10 -5 0 -12
4 -15 9 -7 10 -31 9 -42 -2 -4 -3 3 -5 15 -2 11 2 21 0 21 -4 0 -10 -83 -6
-100 4 -6 3 -8 12 -4 18 3 7 -3 2 -13 -9 -18 -20 -21 -20 -32 -5 -11 15 -12
15 -7 -1 5 -18 -14 -19 -35 -1 -8 6 -23 8 -34 6 -11 -3 -28 -5 -37 -6 -14 -1
-15 -4 -5 -17 11 -13 10 -13 -6 -1 -10 8 -16 20 -13 28 3 8 1 11 -4 8 -6 -3
-10 -14 -10 -23 0 -12 -3 -13 -11 -5 -6 6 -18 9 -27 6 -10 -4 -13 -2 -8 5 4 7
2 12 -3 12 -6 0 -11 -6 -11 -12 0 -10 -3 -9 -9 1 -7 11 -9 11 -14 0 -4 -10 -6
-10 -6 -1 -1 6 -6 12 -12 12 -5 0 -8 -4 -5 -8 3 -5 -2 -9 -10 -9 -8 0 -13 6
-10 14 3 7 1 13 -4 13 -6 0 -10 -6 -10 -14 0 -8 -4 -17 -9 -21 -6 -3 -8 6 -5
22 5 27 5 27 -11 8 -9 -11 -14 -14 -10 -8 4 9 1 11 -9 7 -9 -3 -13 -11 -9 -18
4 -7 2 -7 -8 1 -12 10 -18 10 -28 0 -10 -9 -12 -9 -9 2 2 7 -3 16 -11 19 -8 3
-11 0 -7 -7 5 -7 1 -9 -8 -5 -9 3 -14 10 -11 14 3 5 -9 6 -26 3 -20 -3 -35 0
-40 9 -7 11 -9 11 -9 -1 0 -11 -3 -11 -17 0 -11 10 -14 10 -9 2 4 -8 1 -13 -8
-13 -10 0 -13 6 -10 18 4 11 3 13 -3 5 -5 -7 -19 -11 -31 -8 -13 2 -20 0 -17
-6 4 -5 11 -6 17 -3 7 4 8 2 4 -5 -4 -6 -13 -8 -19 -4 -7 4 -25 8 -40 9 -15 1
-34 10 -42 20 -13 18 -14 18 -24 -6 -9 -23 -16 -13 -12 18 1 6 -1 12 -4 12 -3
0 -6 -6 -6 -12z m1197 -60 c4 -7 3 -8 -4 -4 -7 4 -12 2 -12 -5 0 -7 -3 -10 -6
-6 -6 5 3 27 11 27 2 0 7 -5 11 -12z m-546 -14 c0 -8 -5 -12 -10 -9 -6 4 -8
11 -5 16 9 14 15 11 15 -7z m107 -6 c-3 -8 -6 -5 -6 6 -1 11 2 17 5 13 3 -3 4
-12 1 -19z m476 -21 c3 -8 -1 -14 -8 -14 -7 0 -11 6 -8 14 3 7 6 13 8 13 2 0
5 -6 8 -13z m-205 -42 c-3 -3 -9 2 -12 12 -6 14 -5 15 5 6 7 -7 10 -15 7 -18z
m-318 -1 c0 -8 -19 -13 -24 -6 -3 5 1 9 9 9 8 0 15 -2 15 -3z"/>
<path d="M126 1687 c3 -10 9 -15 12 -12 3 3 0 11 -7 18 -10 9 -11 8 -5 -6z"/>
<path d="M566 1678 c3 -5 10 -6 15 -3 13 9 11 12 -6 12 -8 0 -12 -4 -9 -9z"/>
<path d="M846 1662 c-3 -5 1 -9 9 -9 8 0 15 4 15 9 0 4 -4 8 -9 8 -6 0 -12 -4
-15 -8z"/>
<path d="M2855 1590 c-3 -5 -1 -10 4 -10 6 0 11 5 11 10 0 6 -2 10 -4 10 -3 0
-8 -4 -11 -10z"/>
</g>
</svg>
